<svg width="21" height="36" viewBox="0 0 21 36" fill="none" xmlns="http://www.w3.org/2000/svg">
<path d="M4.38806 1.2163L19.918 16.7002C20.1023 16.8845 20.2326 17.0842 20.3088 17.2992C20.3862 17.5143 20.4249 17.7447 20.4249 17.9905C20.4249 18.2363 20.3862 18.4667 20.3088 18.6817C20.2326 18.8968 20.1023 19.0965 19.918 19.2808L4.38806 34.8108C3.95795 35.2409 3.42032 35.4559 2.77516 35.4559C2.12999 35.4559 1.577 35.2255 1.11617 34.7647C0.655341 34.3039 0.424926 33.7662 0.424926 33.1518C0.424926 32.5373 0.655341 31.9997 1.11617 31.5389L14.6646 17.9905L1.11617 4.44211C0.686063 4.012 0.471009 3.48235 0.471009 2.85317C0.471009 2.22275 0.701423 1.67713 1.16225 1.2163C1.62308 0.75547 2.16072 0.525055 2.77516 0.525055C3.3896 0.525055 3.92723 0.75547 4.38806 1.2163Z" fill="#BD5942"/>
</svg>
