<svg width="21" height="36" viewBox="0 0 21 36" fill="none" xmlns="http://www.w3.org/2000/svg">
<path d="M16.4619 34.7647L0.9319 19.2808C0.747568 19.0965 0.617307 18.8968 0.541116 18.6817C0.463697 18.4667 0.424988 18.2362 0.424988 17.9905C0.424988 17.7447 0.463697 17.5143 0.541116 17.2992C0.617307 17.0842 0.747568 16.8845 0.9319 16.7001L16.4619 1.17019C16.892 0.740078 17.4296 0.525024 18.0748 0.525024C18.7199 0.525024 19.2729 0.755439 19.7337 1.21627C20.1946 1.6771 20.425 2.21473 20.425 2.82917C20.425 3.44361 20.1946 3.98125 19.7337 4.44208L6.18536 17.9905L19.7337 31.5389C20.1639 31.969 20.3789 32.4986 20.3789 33.1278C20.3789 33.7582 20.1485 34.3038 19.6877 34.7647C19.2268 35.2255 18.6892 35.4559 18.0748 35.4559C17.4603 35.4559 16.9227 35.2255 16.4619 34.7647Z" fill="#BD5942"/>
</svg>
