<svg width="15" height="9" viewBox="0 0 15 9" fill="none" xmlns="http://www.w3.org/2000/svg">
<path d="M14.7032 1.86505L8.05409 8.26468C7.97493 8.34064 7.88918 8.39432 7.79683 8.42572C7.70449 8.45762 7.60554 8.47357 7.5 8.47357C7.39446 8.47357 7.29551 8.45762 7.20317 8.42572C7.11082 8.39432 7.02507 8.34064 6.94591 8.26468L0.277045 1.86505C0.0923482 1.68781 0 1.46625 0 1.20039C0 0.934535 0.0989446 0.706655 0.296834 0.516754C0.494723 0.326854 0.725594 0.231904 0.989446 0.231904C1.2533 0.231904 1.48417 0.326854 1.68206 0.516754L7.5 6.09982L13.3179 0.516754C13.5026 0.339514 13.7301 0.250894 14.0003 0.250894C14.271 0.250894 14.5053 0.345844 14.7032 0.535744C14.9011 0.725644 15 0.947195 15 1.20039C15 1.45359 14.9011 1.67515 14.7032 1.86505Z" fill="#BD5942"/>
</svg>
