<svg width="40" height="40" viewBox="0 0 39 45" fill="none" xmlns="http://www.w3.org/2000/svg">
<path d="M22.62 38C20.7 40.2222 18.5 42.5111 16 44.8889C5.34 34.7778 0 26.0445 0 18.6667C0 7.60001 7.6 0.444458 16 0.444458C24 0.444458 31.28 6.93335 31.94 17.1111H39L30 27.1111L21 17.1111H27.94C27.3 9.86668 22.26 4.8889 16 4.8889C9.3 4.8889 4 10.6 4 18.6667C4 23.8667 7.9 30.7556 16 38.9778C17.28 37.6667 18.46 36.4 19.54 35.1778C19.1881 34.4062 19.0032 33.5539 19 32.6889C19 31.2155 19.5268 29.8024 20.4645 28.7605C21.4021 27.7187 22.6739 27.1333 24 27.1333C25.3261 27.1333 26.5979 27.7187 27.5355 28.7605C28.4732 29.8024 29 31.2155 29 32.6889C28.9993 33.5482 28.8186 34.3956 28.4723 35.1639C28.1259 35.9323 27.6234 36.6005 27.0044 37.1158C26.3854 37.631 25.6671 37.9792 24.9061 38.1327C24.1451 38.2861 23.3624 38.2407 22.62 38Z" fill="#BD5942"/>
</svg>
